<?xml version="1.0" standalone="no"?>
<!DOCTYPE svg PUBLIC "-//W3C//DTD SVG 20010904//EN"
 "http://www.w3.org/TR/2001/REC-SVG-20010904/DTD/svg10.dtd">
<svg version="1.0" xmlns="http://www.w3.org/2000/svg"
 width="512.000000pt" height="512.000000pt" viewBox="0 0 512.000000 512.000000"
 preserveAspectRatio="xMidYMid meet">

<g transform="translate(0.000000,512.000000) scale(0.100000,-0.100000)"
fill="#000000" stroke="none">
<path d="M2380 5114 c-19 -2 -78 -9 -130 -14 -330 -36 -695 -160 -990 -336
-375 -224 -680 -529 -904 -904 -175 -292 -291 -632 -338 -990 -16 -123 -16
-497 0 -620 82 -623 356 -1150 820 -1581 256 -239 575 -425 922 -539 274 -91
491 -124 800 -124 228 0 329 9 530 50 689 141 1304 583 1674 1204 175 292 291
632 338 990 16 123 16 497 0 620 -47 358 -163 698 -338 990 -224 375 -529 680
-904 904 -289 173 -634 291 -980 336 -88 12 -438 21 -500 14z m530 -169 c58
-9 166 -31 240 -49 848 -211 1531 -892 1745 -1741 55 -219 69 -342 69 -595 0
-253 -14 -376 -69 -595 -170 -676 -642 -1256 -1270 -1565 -173 -85 -300 -132
-470 -175 -219 -55 -342 -69 -595 -69 -253 0 -376 14 -595 69 -846 213 -1527
894 -1740 1740 -55 219 -69 342 -69 595 0 253 14 376 69 595 170 676 642 1256
1270 1565 284 139 540 210 880 244 85 9 435 -4 535 -19z"/>
<path d="M2370 4709 c-752 -72 -1407 -518 -1738 -1184 -375 -755 -285 -1636
234 -2301 35 -45 71 -85 80 -88 31 -12 61 -6 82 17 36 38 28 68 -44 163 -251
329 -380 653 -425 1069 -22 201 5 485 66 709 186 677 724 1215 1401 1401 224
61 508 88 709 66 416 -45 740 -174 1069 -425 99 -75 131 -83 165 -40 41 53 30
78 -73 158 -437 341 -990 506 -1526 455z"/>
<path d="M2513 4376 c-27 -24 -28 -27 -31 -148 -4 -146 8 -197 51 -212 17 -6
37 -6 55 0 42 15 54 66 50 212 -3 121 -4 124 -31 148 -15 13 -37 24 -47 24
-10 0 -32 -11 -47 -24z"/>
<path d="M1632 4143 c-38 -34 -35 -63 14 -149 56 -99 74 -117 115 -117 38 0
69 32 69 73 0 27 -89 187 -113 202 -21 13 -64 9 -85 -9z"/>
<path d="M3403 4152 c-24 -15 -113 -175 -113 -202 0 -41 31 -73 69 -73 41 0
59 18 115 117 49 86 52 115 14 149 -21 18 -64 22 -85 9z"/>
<path d="M4096 3969 c-43 -34 -35 -66 40 -165 251 -329 380 -653 425 -1069 29
-266 -20 -613 -126 -893 -198 -523 -634 -959 -1157 -1157 -280 -106 -627 -155
-893 -126 -416 45 -740 174 -1069 425 -99 75 -131 83 -165 40 -41 -53 -30 -78
73 -158 302 -236 647 -384 1029 -442 158 -24 454 -24 612 0 708 107 1310 542
1623 1171 375 755 285 1636 -234 2301 -80 103 -105 114 -158 73z"/>
<path d="M2535 3830 c-51 -20 -50 -8 -53 -546 l-3 -503 -44 -26 c-27 -15 -55
-43 -70 -69 -25 -43 -26 -43 -91 -49 -79 -6 -104 -24 -104 -77 0 -53 25 -71
104 -77 65 -6 66 -6 91 -49 15 -26 43 -54 69 -69 43 -25 43 -26 49 -91 6 -79
24 -104 77 -104 53 0 71 25 77 104 6 65 6 66 49 91 26 15 54 43 69 70 l26 44
424 3 c422 3 425 3 446 25 29 29 29 77 0 106 -21 22 -24 22 -446 25 l-424 3
-26 44 c-15 27 -43 55 -70 70 l-44 26 -3 504 c-3 489 -4 505 -23 524 -25 24
-54 32 -80 21z m82 -1212 c51 -48 15 -138 -56 -138 -47 0 -81 32 -81 79 0 72
84 109 137 59z"/>
<path d="M1000 3507 c-29 -15 -45 -54 -37 -89 8 -30 167 -128 208 -128 63 0
97 77 53 120 -22 22 -173 110 -189 110 -5 0 -21 -6 -35 -13z"/>
<path d="M3995 3475 c-100 -57 -118 -75 -118 -116 0 -38 32 -69 73 -69 27 0
187 89 202 113 13 21 9 64 -9 85 -33 39 -62 36 -148 -13z"/>
<path d="M783 2633 c-27 -5 -63 -48 -63 -74 0 -10 11 -31 24 -46 24 -27 27
-28 148 -31 146 -4 197 8 212 51 15 42 -3 80 -44 94 -33 11 -228 15 -277 6z"/>
<path d="M4060 2627 c-41 -14 -59 -52 -44 -94 15 -43 66 -55 212 -51 121 3
124 4 148 31 30 35 30 59 0 94 -24 28 -26 28 -153 30 -83 2 -140 -2 -163 -10z"/>
<path d="M1060 1780 c-47 -28 -88 -56 -92 -63 -13 -21 -9 -64 10 -85 33 -38
62 -35 148 14 99 56 117 74 117 115 0 38 -32 69 -73 69 -15 0 -64 -23 -110
-50z"/>
<path d="M3899 1812 c-28 -24 -30 -75 -3 -102 10 -11 55 -40 98 -64 86 -49
115 -52 149 -14 18 21 22 64 9 85 -15 24 -175 113 -202 113 -16 0 -38 -8 -51
-18z"/>
<path d="M1733 1240 c-43 -17 -134 -180 -126 -223 9 -49 77 -75 115 -44 27 21
108 170 108 198 0 51 -52 87 -97 69z"/>
<path d="M3333 1240 c-26 -10 -43 -39 -43 -72 0 -26 83 -176 108 -195 23 -18
66 -16 90 5 38 33 35 62 -14 148 -63 110 -91 134 -141 114z"/>
<path d="M2511 1091 c-26 -26 -34 -88 -29 -217 3 -102 5 -107 31 -130 35 -30
59 -30 94 0 26 23 28 28 31 130 7 179 -12 236 -78 236 -16 0 -39 -9 -49 -19z"/>
</g>
</svg>
