<?xml version="1.0" standalone="no"?>
<!DOCTYPE svg PUBLIC "-//W3C//DTD SVG 20010904//EN"
 "http://www.w3.org/TR/2001/REC-SVG-20010904/DTD/svg10.dtd">
<svg version="1.0" xmlns="http://www.w3.org/2000/svg"
 width="512.000000pt" height="512.000000pt" viewBox="0 0 512.000000 512.000000"
 preserveAspectRatio="xMidYMid meet">

<g transform="translate(0.000000,512.000000) scale(0.100000,-0.100000)"
fill="#000000" stroke="none">
<path d="M2963 5058 c-62 -16 -171 -166 -232 -318 -78 -198 -83 -457 -13 -660
30 -86 86 -192 140 -263 63 -83 54 -96 -36 -55 -76 35 -175 58 -250 58 -137 0
-308 -62 -403 -148 l-50 -44 -92 -2 c-93 -1 -100 -3 -219 -64 -5 -2 -8 19 -8
46 0 129 -56 328 -124 441 -43 70 -121 145 -179 171 -64 29 -159 27 -225 -6
-105 -52 -204 -199 -258 -382 -3 -9 -29 9 -72 48 -259 238 -572 314 -728 177
-66 -58 -87 -105 -92 -207 -9 -178 72 -356 263 -577 l36 -41 -79 -26 c-145
-48 -253 -129 -308 -230 -38 -68 -41 -168 -6 -237 74 -150 279 -258 552 -291
52 -6 97 -12 99 -14 2 -2 -7 -19 -19 -38 l-22 -36 -210 0 c-180 0 -214 -2
-239 -17 -48 -28 -59 -67 -59 -200 0 -99 3 -123 20 -150 26 -43 68 -63 134
-63 62 0 55 12 76 -130 33 -211 104 -432 209 -645 121 -244 259 -432 462 -631
227 -221 568 -437 731 -464 86 -14 1057 -14 1094 0 52 20 70 74 38 115 -14 19
-30 20 -572 25 l-557 5 -105 52 c-360 180 -674 474 -881 825 -148 249 -229
482 -284 821 l-5 27 2135 0 2135 0 -5 -27 c-58 -356 -162 -640 -326 -893 -211
-324 -539 -614 -876 -773 -66 -31 -72 -32 -240 -37 -157 -5 -174 -7 -187 -25
-32 -41 -14 -95 38 -115 35 -13 242 -13 324 0 163 27 504 243 731 464 203 199
341 387 462 631 105 213 177 436 209 645 21 142 14 130 76 130 66 0 108 20
134 63 17 27 20 51 20 150 0 187 -18 209 -175 217 -59 3 -99 9 -98 15 1 6 14
40 27 77 44 118 59 217 54 362 -3 85 -9 142 -19 161 -18 39 -65 54 -187 62
-82 5 -95 9 -100 26 -3 10 -23 55 -44 100 -31 63 -57 98 -117 158 -120 118
-263 179 -421 179 l-75 0 80 40 c98 49 210 132 230 170 19 37 19 83 1 118 -8
15 -284 296 -614 625 -637 637 -623 625 -699 605z m92 -208 l48 -49 -26 -38
c-35 -51 -84 -160 -92 -203 -9 -49 23 -90 69 -90 46 0 63 17 86 85 11 33 32
77 46 99 l26 39 51 -51 50 -50 -24 -54 c-33 -74 -34 -220 -1 -291 49 -108 171
-198 287 -212 60 -8 152 8 206 36 l36 18 52 -53 53 -53 -44 -26 c-49 -29 -157
-67 -188 -67 -11 0 -37 9 -58 19 -59 30 -138 50 -226 58 l-81 6 -61 61 c-37
37 -75 88 -94 126 -43 86 -56 100 -97 100 -41 0 -73 -30 -73 -69 0 -39 62
-159 111 -215 23 -26 40 -48 38 -49 -2 -1 -33 -17 -68 -36 l-64 -34 -28 34
c-46 56 -106 169 -135 254 -22 67 -28 103 -32 215 -5 158 13 252 73 378 34 71
92 162 105 162 3 0 28 -22 55 -50z m514 -514 c73 -73 129 -136 124 -139 -6 -4
-28 -9 -50 -13 -115 -18 -233 85 -233 203 0 43 9 83 19 83 3 0 66 -60 140
-134z m-2120 -260 c74 -39 150 -176 181 -327 14 -68 20 -135 20 -240 0 -160 7
-181 61 -194 21 -5 38 5 98 55 94 79 156 110 220 110 42 0 54 -5 79 -30 50
-50 65 -114 60 -249 -5 -99 -11 -132 -43 -228 -21 -63 -62 -156 -93 -210 -70
-123 -75 -159 -38 -297 15 -55 24 -101 22 -103 -13 -13 -54 19 -174 140 l-134
134 37 229 c20 126 37 243 38 261 1 41 -27 73 -65 73 -69 0 -76 -14 -113 -254
-13 -87 -27 -161 -30 -164 -3 -4 -53 41 -111 99 l-106 106 36 227 c41 256 43
292 19 318 -22 24 -84 24 -106 0 -11 -12 -27 -81 -47 -207 -17 -104 -33 -192
-36 -194 -6 -6 -844 830 -844 841 0 13 62 9 125 -7 155 -40 359 -187 481 -346
39 -52 79 -61 118 -26 20 17 28 38 37 97 25 167 99 325 178 377 39 26 89 29
130 9z m2649 -328 c-18 -15 -66 -44 -106 -65 -70 -36 -74 -37 -85 -19 -7 10
-26 37 -44 61 l-32 43 72 35 c40 19 83 43 97 55 l25 21 53 -52 53 -52 -33 -27z
m-2988 -729 c0 -3 -84 -18 -187 -34 -205 -32 -233 -44 -233 -101 0 -33 35 -74
64 -74 12 0 128 17 259 37 l238 37 110 -109 110 -110 -53 -8 c-302 -47 -343
-56 -360 -77 -10 -12 -18 -32 -18 -45 0 -34 37 -75 68 -75 15 0 132 17 260 37
l233 37 87 -87 87 -87 -99 0 c-79 0 -103 -3 -118 -17 -26 -23 -24 -84 3 -109
21 -19 65 -19 1715 -22 l1694 -2 0 -65 0 -65 -2345 0 -2345 0 0 65 0 64 504 3
c479 3 505 4 525 22 26 23 28 81 4 108 -15 16 -36 18 -255 18 -131 0 -238 3
-238 6 0 3 25 35 55 70 59 70 67 98 37 134 -17 20 -26 22 -192 24 -193 3 -277
19 -397 75 -70 33 -145 98 -163 141 -50 120 146 263 405 295 70 9 105 35 105
78 0 28 -13 44 -91 117 -51 46 -116 113 -145 148 -93 113 -164 271 -164 366
l0 51 420 -420 c231 -231 420 -422 420 -426z m2363 786 c89 -19 159 -57 230
-127 54 -53 117 -160 117 -198 0 -9 -15 -21 -34 -28 -18 -7 -61 -30 -96 -52
l-62 -41 -46 34 c-247 180 -573 165 -789 -36 -36 -34 -81 -85 -99 -113 l-33
-51 -53 14 c-36 9 -92 13 -171 11 l-117 -3 0 55 c0 69 -23 161 -56 219 l-24
44 22 24 c33 35 154 91 223 104 114 21 230 -4 346 -76 72 -44 94 -44 133 1
131 150 186 190 302 218 77 19 124 19 207 1z m-148 -450 c79 -21 145 -58 207
-117 85 -82 101 -82 191 -2 93 83 206 120 344 111 171 -10 324 -120 392 -281
l20 -44 -72 -22 c-104 -32 -227 -91 -319 -156 l-80 -56 -61 59 c-82 78 -145
123 -242 171 -429 215 -947 71 -1209 -335 -56 -86 -82 -143 -111 -243 l-23
-75 -93 0 -94 0 -29 116 -30 116 71 140 c42 83 79 174 93 226 l23 85 43 11
c90 23 219 11 320 -30 54 -22 80 -6 118 70 105 207 326 312 541 256z m75 -395
c201 -32 385 -138 506 -293 60 -76 129 -209 139 -269 l7 -38 -143 1 c-116 0
-140 2 -124 12 68 42 90 91 60 134 -26 38 -68 39 -130 3 -30 -17 -62 -41 -70
-53 -17 -24 -20 -63 -5 -72 34 -21 -17 -25 -349 -25 l-359 0 5 39 c7 53 -6 73
-75 109 -70 38 -81 39 -116 11 -19 -15 -26 -30 -26 -55 0 -34 7 -44 60 -84 25
-19 25 -19 -119 -20 l-143 0 7 28 c29 120 100 237 210 347 72 73 108 100 180
137 167 85 321 113 485 88z m1040 -305 c-129 -129 -237 -231 -241 -227 -4 4
-12 25 -19 47 -7 22 -29 73 -48 114 l-36 73 35 29 c133 109 347 193 504 198
l40 1 -235 -235z m321 -60 c-12 -47 -36 -120 -55 -161 l-35 -74 -153 0 -153 0
205 205 205 205 3 -44 c2 -25 -6 -84 -17 -131z"/>
<path d="M3231 2794 c-16 -21 -21 -41 -21 -89 0 -79 24 -115 76 -115 57 0 74
27 74 115 0 62 -4 79 -20 95 -30 30 -83 27 -109 -6z"/>
<path d="M2956 2729 c-36 -28 -34 -71 7 -139 38 -65 73 -83 115 -59 15 8 31
27 37 43 17 50 -64 176 -115 176 -10 0 -29 -9 -44 -21z"/>
<path d="M3526 2727 c-13 -13 -36 -48 -50 -76 -25 -48 -25 -53 -12 -86 18 -42
56 -55 95 -34 31 17 91 114 91 145 0 31 -30 63 -67 70 -25 5 -37 1 -57 -19z"/>
<path d="M4298 4700 c-63 -11 -146 -50 -185 -87 -28 -27 -33 -38 -33 -79 l0
-48 222 -222 c122 -123 235 -228 251 -235 74 -31 149 33 188 163 40 130 12
266 -76 374 -83 100 -237 157 -367 134z m179 -176 c82 -39 132 -120 133 -215
0 -46 -16 -109 -29 -109 -3 0 -80 74 -169 163 l-164 164 29 11 c66 26 123 22
200 -14z"/>
<path d="M2068 4373 c-149 -149 -232 -238 -238 -259 -23 -69 41 -139 162 -180
77 -25 217 -16 286 19 110 56 179 136 214 251 33 110 15 228 -51 329 -29 44
-67 67 -113 67 -29 0 -56 -24 -260 -227z m281 10 c32 -115 -27 -246 -134 -294
-46 -21 -150 -25 -190 -7 -26 12 -26 12 137 175 89 90 166 163 170 163 4 0 12
-17 17 -37z"/>
</g>
</svg>
